<svg xmlns="http://www.w3.org/2000/svg" version="1.1" xmlns:xlink="http://www.w3.org/1999/xlink" xmlns:svgjs="http://svgjs.dev/svgjs" viewBox="0 0 800 800"><defs><symbol id="bbburst-shape-1" viewBox="0 0 194 167"><path d="m97 0 96.129 166.5H.871L97 0Z"></path></symbol><symbol id="bbburst-shape-2" viewBox="0 0 126 115"><path d="m63 0 62.77 43.877-23.976 70.996H24.206L.23 43.877 63 0Z"></path></symbol><symbol id="bbburst-shape-3" viewBox="0 0 131 127"><path d="m66 0 66 63.5L66 127 0 63.5 66 0Z"></path></symbol><symbol id="bbburst-shape-4" viewBox="0 0 149 143"><path d="M71.647 2.781c.898-2.764 4.808-2.764 5.706 0l15.445 47.534a3 3 0 0 0 2.853 2.073h49.98c2.906 0 4.115 3.719 1.764 5.427L106.96 87.193a2.999 2.999 0 0 0-1.09 3.354l15.445 47.534c.898 2.764-2.266 5.062-4.617 3.354l-40.435-29.378a3 3 0 0 0-3.526 0l-40.435 29.378c-2.351 1.708-5.515-.59-4.617-3.354L43.13 90.547a3 3 0 0 0-1.09-3.354L1.605 57.815c-2.35-1.708-1.142-5.427 1.764-5.427h49.98a3 3 0 0 0 2.853-2.073L71.647 2.781Z"></path></symbol><symbol id="bbburst-shape-8" viewBox="0 0 87 168"><path d="m12 12 31.2546 18.0749c16.4102 9.4902 20.014 31.6325 7.4603 45.8369L36.3296 92.1884c-12.5684 14.2206-8.9394 36.3916 7.5068 45.8636L75 156" stroke-width="14" stroke-linecap="round" stroke-linejoin="round"></path></symbol><symbol id="bbburst-shape-9" viewBox="0 0 182 172"><path d="M13.5809 69.845 91 13.5967l77.419 56.2483-29.571 91.012H43.1524L13.5809 69.845Z" stroke-width="22"></path></symbol><symbol id="bbburst-shape-10" viewBox="0 0 145 145"><circle cx="72.5" cy="72.5" r="61.5" fill="none" stroke-width="22"></circle></symbol><symbol id="bbburst-shape-14" viewBox="0 0 185 109"><path d="M168 16.5C168 58.1975 134.197 92 92.5 92 50.8025 92 17 58.1975 17 16.5" stroke-width="33" stroke-linecap="round"></path></symbol></defs><use xlink:href="#bbburst-shape-9" width="72.51792169628831" opacity="0.284380688969453" transform="matrix(0.7160471779140768,-0.6980518884734046,0.6980518884734046,0.7160471779140768,277.4000295917431,153.6432504553925)" fill="none" stroke="#ffff80"></use><use xlink:href="#bbburst-shape-9" width="49.523919796477884" opacity="0.46096400379493085" transform="matrix(0.9482820646903131,0.3174289302925568,-0.3174289302925568,0.9482820646903131,617.8289058332269,-225.85858167302374)" fill="none" stroke="#8aff80"></use><use xlink:href="#bbburst-shape-2" width="26.9509242586782" opacity="0.616486486977594" transform="matrix(0.7420274780211041,-0.6703694666835892,0.6703694666835892,0.7420274780211041,-251.3699924570599,94.81083980982015)" fill="#2c2891"></use><use xlink:href="#bbburst-shape-3" width="29.641089829649122" opacity="0.6966006494606963" transform="matrix(0.8273700754160724,-0.5616571537032201,0.5616571537032201,0.8273700754160724,-153.33798934325776,-30.929264621053505)" fill="#ff9580"></use><use xlink:href="#bbburst-shape-8" width="22.16614337366243" opacity="0.7816084875605497" transform="matrix(0.7473752107348807,0.664402208288769,-0.664402208288769,0.7473752107348807,346.6881782869951,-106.97392555428664)" fill="none" stroke="#9580ff"></use><use xlink:href="#bbburst-shape-8" width="52.86406727761574" opacity="0.4199705162777265" transform="matrix(0.8708171671926507,-0.49160701919578714,0.49160701919578714,0.8708171671926507,52.620835460817034,176.8168926209898)" fill="none" stroke="#ffff80"></use><use xlink:href="#bbburst-shape-10" width="25.476239887758467" opacity="0.7163729596491666" transform="matrix(0.7979160978762441,0.6027685299930216,-0.6027685299930216,0.7979160978762441,463.1180335658124,-163.93577849351144)" fill="none" stroke="#ff9580"></use><use xlink:href="#bbburst-shape-8" width="28.672470488746082" opacity="0.6875389175360886" transform="matrix(0.9184541914362802,-0.395527367236616,0.395527367236616,0.9184541914362802,37.87331048075123,-129.66440485400307)" fill="none" stroke="#9580ff"></use><use xlink:href="#bbburst-shape-3" width="40.46559775872739" opacity="0.5316393702591173" transform="matrix(0.750422496405764,-0.6609584532239081,0.6609584532239081,0.750422496405764,128.3617487076662,-56.77730994104658)" fill="#2c2891"></use><use xlink:href="#bbburst-shape-2" width="24.701192250941997" opacity="0.7777630196660482" transform="matrix(0.8864276323448218,0.4628672084038288,-0.4628672084038288,0.8864276323448218,394.1795434620334,-328.72853735688955)" fill="#ffff80"></use><use xlink:href="#bbburst-shape-4" width="10.904044856142447" opacity="0.9581890453454979" transform="matrix(0.8103696014762812,-0.5859190293915817,0.5859190293915817,0.8103696014762812,-200.93110277761048,-303.179706893674)" fill="#2c2891"></use><use xlink:href="#bbburst-shape-14" width="19.79075856897019" opacity="0.7521482091601353" transform="matrix(0.9690947067384278,0.24668897294277392,-0.24668897294277392,0.9690947067384278,154.97607533457042,-151.12181556878116)" fill="none" stroke="#9580ff"></use><use xlink:href="#bbburst-shape-1" width="55.63227209853477" opacity="0.4343222899192105" transform="matrix(0.9692061709300218,-0.24625068168670203,0.24625068168670203,0.9692061709300218,316.40615780392966,-27.547593719884787)" fill="#8aff80"></use><use xlink:href="#bbburst-shape-3" width="19.289537496823463" opacity="0.891665598628854" transform="matrix(0.9216290868578936,0.3880719343852184,-0.3880719343852184,0.9216290868578936,237.21397198758268,-313.55110663122025)" fill="#2c2891"></use><use xlink:href="#bbburst-shape-3" width="41.69834956441637" opacity="0.2554145729670181" transform="matrix(0.9660282937348986,-0.25843632814223394,0.25843632814223394,0.9660282937348986,614.9754540400843,-287.1118171499648)" fill="#9580ff"></use><use xlink:href="#bbburst-shape-9" width="45.67143476594981" opacity="0.27650902248655684" transform="matrix(0.8878672110977348,0.46009978858670486,-0.46009978858670486,0.8878672110977348,217.1808596697315,355.59994756881315)" fill="none" stroke="#9580ff"></use><use xlink:href="#bbburst-shape-9" width="25.738355352784303" opacity="0.7194896408816074" transform="matrix(0.9289471916150415,0.37021225694259147,-0.37021225694259147,0.9289471916150415,399.9710788755698,-281.0691116736489)" fill="none" stroke="#8aff80"></use><use xlink:href="#bbburst-shape-8" width="50.96084132782049" opacity="0.2822663382342774" transform="matrix(0.9663335853017065,0.25729244434679654,-0.25729244434679654,0.9663335853017065,461.4252403221686,213.8310553298279)" fill="none" stroke="#2c2891"></use><use xlink:href="#bbburst-shape-2" width="11.283154115870717" opacity="0.9511605946034509" transform="matrix(0.9999288806389606,-0.011926175586305179,0.011926175586305179,0.9999288806389606,5.264543803792421,-353.64335183147944)" fill="#9580ff"></use><use xlink:href="#bbburst-shape-4" width="18.127368162121794" opacity="0.7935562746909365" transform="matrix(0.7174940264895668,-0.6965646574093383,0.6965646574093383,0.7174940264895668,-260.33402588363424,-75.72164180370379)" fill="#9580ff"></use><use xlink:href="#bbburst-shape-3" width="18.27319859822545" opacity="0.9251369149161408" transform="matrix(0.9894096581727297,-0.14515002002935498,0.14515002002935498,0.9894096581727297,-16.493102747687942,-339.32357215628565)" fill="#9580ff"></use><use xlink:href="#bbburst-shape-9" width="59.096400936382125" opacity="0.33283271590097385" transform="matrix(0.9938411634204437,0.11081399681944026,-0.11081399681944026,0.9938411634204437,229.85733930907992,230.41817247258047)" fill="none" stroke="#ff9580"></use><use xlink:href="#bbburst-shape-14" width="34.27491188309557" opacity="0.6330945369467003" transform="matrix(0.7774404345295757,-0.6289565730306541,0.6289565730306541,0.7774404345295757,99.59292614347817,-257.9546961425869)" fill="none" stroke="#2c2891"></use><use xlink:href="#bbburst-shape-4" width="58.847637606540374" opacity="0.10248230191122987" transform="matrix(0.986968438628288,-0.16091395573920664,0.16091395573920664,0.986968438628288,431.63765764871016,337.92600068563564)" fill="#9580ff"></use><use xlink:href="#bbburst-shape-2" width="13.94787412229077" opacity="0.8435885391990441" transform="matrix(0.9637636760028202,-0.2667575243878437,0.2667575243878437,0.9637636760028202,7.822506270238861,-284.82424776880254)" fill="#8aff80"></use><use xlink:href="#bbburst-shape-4" width="69.86913780657476" opacity="0.2015067141511424" transform="matrix(0.7957867970477335,-0.6055768932551088,0.6055768932551088,0.7957867970477335,285.2978759256046,276.68899194624214)" fill="#9580ff"></use><use xlink:href="#bbburst-shape-2" width="13.4012008057378" opacity="0.8830618329708269" transform="matrix(0.7424816759636609,-0.6698663753751141,0.6698663753751141,0.7424816759636609,-254.27232714296645,-177.05691858868028)" fill="#9580ff"></use><use xlink:href="#bbburst-shape-2" width="50.909235815606166" opacity="0.3935562133777031" transform="matrix(0.9265948895023851,-0.3760610465709826,0.3760610465709826,0.9265948895023851,361.0915540723265,-75.64696438255027)" fill="#9580ff"></use><use xlink:href="#bbburst-shape-9" width="28.941353803625134" opacity="0.6501264164941792" transform="matrix(0.7570852720116052,-0.6533160727420639,0.6533160727420639,0.7570852720116052,-122.11439966743345,22.41980015033198)" fill="none" stroke="#ffff80"></use><use xlink:href="#bbburst-shape-8" width="27.1611151458893" opacity="0.6231050607328595" transform="matrix(0.8312379674634489,-0.5559167576600245,0.5559167576600245,0.8312379674634489,-135.2607288108556,38.8789994747753)" fill="none" stroke="#9580ff"></use><use xlink:href="#bbburst-shape-10" width="12.949227484880668" opacity="0.9320885120992094" transform="matrix(0.9161937599335435,-0.40073556650094905,0.40073556650094905,0.9161937599335435,-101.1317213487701,-344.52632246385093)" fill="none" stroke="#8aff80"></use><use xlink:href="#bbburst-shape-8" width="13.98905481243073" opacity="0.8838844337936896" transform="matrix(0.9747721939091186,0.2232020832824006,-0.2232020832824006,0.9747721939091186,152.2435424609344,-298.6613242350788)" fill="none" stroke="#9580ff"></use><use xlink:href="#bbburst-shape-4" width="38.650434660030506" opacity="0.5312282910094848" transform="matrix(0.992607576373333,-0.12136803255494412,0.12136803255494412,0.992607576373333,267.90372673004583,-67.40132153239978)" fill="#2c2891"></use><use xlink:href="#bbburst-shape-9" width="42.82623884488275" opacity="0.3954544400348977" transform="matrix(0.8535161130109461,-0.5210664495346883,0.5210664495346883,0.8535161130109461,-156.2805283035006,269.9169953635256)" fill="none" stroke="#ff9580"></use><use xlink:href="#bbburst-shape-4" width="18.162757030239263" opacity="0.8233536167815818" transform="matrix(0.8410176038268175,0.5410077541527463,-0.5410077541527463,0.8410176038268175,279.37013810861436,-179.38760497501693)" fill="#8aff80"></use><use xlink:href="#bbburst-shape-2" width="62.537013464235585" opacity="0.1239549259918562" transform="matrix(0.9125726490118171,-0.40891461245051486,0.40891461245051486,0.9125726490118171,530.4904705299165,143.09958332255644)" fill="#ff9580"></use><use xlink:href="#bbburst-shape-14" width="49.51959378352206" opacity="0.38611432150238556" transform="matrix(0.9908245555372287,-0.13515435673500592,0.13515435673500592,0.9908245555372287,531.4581922423015,-324.34201421673424)" fill="none" stroke="#ff9580"></use><use xlink:href="#bbburst-shape-14" width="32.73308765752415" opacity="0.4947088203831699" transform="matrix(0.9961596302649673,0.08755564533691394,-0.08755564533691394,0.9961596302649673,60.08366727196644,103.74207489552367)" fill="none" stroke="#ff9580"></use><use xlink:href="#bbburst-shape-1" width="14.56308373054421" opacity="0.8703910036484593" transform="matrix(0.8902123484158191,-0.4555457987162129,0.4555457987162129,0.8902123484158191,-60.56084571607502,-333.233824376699)" fill="#ffff80"></use><use xlink:href="#bbburst-shape-1" width="16.934961585792244" opacity="0.8616602937481086" transform="matrix(0.9906380110600532,-0.1365149480569141,0.1365149480569141,0.9906380110600532,-4.681201573293656,-269.62719926820495)" fill="#8aff80"></use><use xlink:href="#bbburst-shape-9" width="10.621451714843129" opacity="0.903286042637536" transform="matrix(0.9435310756129006,-0.33128403123718897,0.33128403123718897,0.9435310756129006,-42.95025363786556,-355.6004566559786)" fill="none" stroke="#ff9580"></use><use xlink:href="#bbburst-shape-14" width="47.45637576797312" opacity="0.1897563853922427" transform="matrix(0.8363576563983005,-0.5481841575455664,0.5481841575455664,0.8363576563983005,99.22048122787771,414.75501883410425)" fill="none" stroke="#9580ff"></use><use xlink:href="#bbburst-shape-9" width="48.425814827590656" opacity="0.20238790843940058" transform="matrix(0.9386172757752516,0.34496030150764495,-0.34496030150764495,0.9386172757752516,852.5142837641718,-79.46913914394054)" fill="none" stroke="#2c2891"></use><use xlink:href="#bbburst-shape-1" width="37.86403374770479" opacity="0.23465014070533052" transform="matrix(0.9984638270332141,-0.055407455330378094,0.055407455330378094,0.9984638270332141,130.9647634707378,347.4780578396882)" fill="#8aff80"></use><use xlink:href="#bbburst-shape-14" width="30.941149775268137" opacity="0.7131421104299053" transform="matrix(0.8148861635037784,0.5796210318217355,-0.5796210318217355,0.8148861635037784,504.11063385896466,-301.3715048638219)" fill="none" stroke="#ffff80"></use><use xlink:href="#bbburst-shape-8" width="55.48975450361" opacity="0.37298207133212535" transform="matrix(0.8111350243468927,0.5848589336564551,-0.5848589336564551,0.8111350243468927,625.6706321026313,130.02435516195243)" fill="none" stroke="#ffff80"></use><use xlink:href="#bbburst-shape-3" width="26.33146743385155" opacity="0.7833797633335039" transform="matrix(0.9740300712464645,-0.22641868365399404,0.22641868365399404,0.9740300712464645,65.6168450666434,-251.22930743224225)" fill="#2c2891"></use><use xlink:href="#bbburst-shape-14" width="16.70044511862889" opacity="0.8476737122060616" transform="matrix(0.9987862041303066,-0.049255643727124196,0.049255643727124196,0.9987862041303066,111.02735395837645,-336.9257390976465)" fill="none" stroke="#9580ff"></use><use xlink:href="#bbburst-shape-9" width="45.86007491852489" opacity="0.5544122412740118" transform="matrix(0.7825630555894553,0.6225713324804597,-0.6225713324804597,0.7825630555894553,406.4474318689148,82.16899630759332)" fill="none" stroke="#2c2891"></use><use xlink:href="#bbburst-shape-2" width="39.12023275553544" opacity="0.515339909310788" transform="matrix(0.8299933473704543,0.557773290254014,-0.557773290254014,0.8299933473704543,689.1632125386058,-295.11603732711444)" fill="#2c2891"></use><use xlink:href="#bbburst-shape-10" width="24.031058695403647" opacity="0.7881069127383766" transform="matrix(0.8922193827143179,0.4516022288573005,-0.4516022288573005,0.8922193827143179,362.92756852830706,-274.8674019205653)" fill="none" stroke="#8aff80"></use><use xlink:href="#bbburst-shape-2" width="13.099364777744398" opacity="0.9171770682140116" transform="matrix(0.9365544554414637,-0.350522113414751,0.350522113414751,0.9365544554414637,-124.71370944132993,-292.3703445679795)" fill="#8aff80"></use><use xlink:href="#bbburst-shape-2" width="18.642892279579677" opacity="0.8179580717996464" transform="matrix(0.7120050852717454,0.7021743078090898,-0.7021743078090898,0.7120050852717454,386.9073003916861,-148.36428618270503)" fill="#ff9580"></use><use xlink:href="#bbburst-shape-10" width="35.445275298728106" opacity="0.5090893526302589" transform="matrix(0.8993315352994862,0.4372674120213729,-0.4372674120213729,0.8993315352994862,438.07803081185835,36.363229606221864)" fill="none" stroke="#8aff80"></use><use xlink:href="#bbburst-shape-8" width="21.200267503763722" opacity="0.7368543882319141" transform="matrix(0.9683394661506549,-0.2496370931874199,0.2496370931874199,0.9683394661506549,-87.54865333103126,-122.51374781354934)" fill="none" stroke="#2c2891"></use><use xlink:href="#bbburst-shape-3" width="25.272554322485284" opacity="0.6798289868683646" transform="matrix(0.9957273976646279,-0.09234148331074149,0.09234148331074149,0.9957273976646279,-18.349044024912377,-78.47445790142893)" fill="#9580ff"></use><use xlink:href="#bbburst-shape-9" width="16.502153468475257" opacity="0.8276811448725414" transform="matrix(0.9962100914170663,0.08697961691569168,-0.08697961691569168,0.9962100914170663,196.86975092727727,-372.9351376966238)" fill="none" stroke="#2c2891"></use><use xlink:href="#bbburst-shape-2" width="39.50256248529806" opacity="0.46503797980820394" transform="matrix(0.8473634271233474,-0.5310133918968292,0.5310133918968292,0.8473634271233474,-76.18954646196298,184.1932798895238)" fill="#2c2891"></use><use xlink:href="#bbburst-shape-14" width="76.10724493424229" opacity="0.003182018534023112" transform="matrix(0.8140903485912783,-0.5807382408026279,0.5807382408026279,0.8140903485912783,448.8182420466485,394.15359929968366)" fill="none" stroke="#2c2891"></use><use xlink:href="#bbburst-shape-10" width="31.170357796061552" opacity="0.7177154121759417" transform="matrix(0.8293007523164228,0.5588025252335705,-0.5588025252335705,0.8293007523164228,345.6655929039539,-92.55671099193458)" fill="none" stroke="#9580ff"></use><use xlink:href="#bbburst-shape-10" width="34.40473732244748" opacity="0.6203779941086014" transform="matrix(0.9976146112016332,-0.06902961333380163,0.06902961333380163,0.9976146112016332,252.94428618383878,-162.32241225400912)" fill="none" stroke="#8aff80"></use><use xlink:href="#bbburst-shape-8" width="38.552695444899875" opacity="0.6146211344445314" transform="matrix(0.9197876761485257,0.3924163997659817,-0.3924163997659817,0.9197876761485257,366.33360938399414,-64.12154060703887)" fill="none" stroke="#ffff80"></use><use xlink:href="#bbburst-shape-10" width="24.893237272259476" opacity="0.5596229054987896" transform="matrix(0.7085692377057373,-0.7056412937017719,0.7056412937017719,0.7085692377057373,-219.41327903227793,159.8622969579235)" fill="none" stroke="#9580ff"></use><use xlink:href="#bbburst-shape-10" width="8.848292768146825" opacity="0.980919888364362" transform="matrix(0.7623470821980147,-0.6471683909649585,0.6471683909649585,0.7623470821980147,-250.0090608528762,-287.43146668224347)" fill="none" stroke="#8aff80"></use><use xlink:href="#bbburst-shape-10" width="16.164271681675576" opacity="0.8391662178696663" transform="matrix(0.9845921113769156,0.1748667327262316,-0.1748667327262316,0.9845921113769156,85.00965808500366,-236.0723875980998)" fill="none" stroke="#8aff80"></use><use xlink:href="#bbburst-shape-9" width="37.73702761069252" opacity="0.6482233819381811" transform="matrix(0.9966692411751034,-0.0815501299535672,0.0815501299535672,0.9966692411751034,267.36836305010087,-248.7086603078799)" fill="none" stroke="#9580ff"></use><use xlink:href="#bbburst-shape-4" width="27.296217323896542" opacity="0.7573604605724114" transform="matrix(0.7545055690067869,-0.656293643377524,0.656293643377524,0.7545055690067869,-121.1032097594308,-103.45264792912971)" fill="#2c2891"></use><use xlink:href="#bbburst-shape-9" width="41.75805530330942" opacity="0.5784226757118218" transform="matrix(0.8960456779484397,0.44396187114426966,-0.44396187114426966,0.8960456779484397,562.4266358790018,-245.5663206041434)" fill="none" stroke="#ff9580"></use><use xlink:href="#bbburst-shape-2" width="56.076860758368895" opacity="0.3200982514340506" transform="matrix(0.7432466603158909,0.6690174900025221,-0.6690174900025221,0.7432466603158909,889.2724654285518,-93.70846681061474)" fill="#2c2891"></use></svg>