<svg xmlns="http://www.w3.org/2000/svg" version="1.1" xmlns:xlink="http://www.w3.org/1999/xlink" xmlns:svgjs="http://svgjs.dev/svgjs" viewBox="0 0 1422 800"><circle r="11.5" cx="698" cy="729" stroke-width="2" stroke="hsl(150, 50%, 50%)" fill="none" opacity="0.95"></circle><circle r="13" cx="1042" cy="457" fill="hsl(196, 50%, 50%)" opacity="0.89"></circle><circle r="16" cx="352" cy="495" stroke-width="2" stroke="hsl(259, 50%, 50%)" fill="none" opacity="0.32"></circle><circle r="17" cx="115" cy="120" stroke-width="2" stroke="hsl(313, 50%, 50%)" fill="none" opacity="0.59"></circle><circle r="17.5" cx="206" cy="112" fill="hsl(323, 50%, 50%)" opacity="0.32"></circle><circle r="18" cx="303" cy="141" fill="hsl(295, 50%, 50%)" opacity="0.99"></circle><circle r="14" cx="426" cy="575" stroke-width="2" stroke="hsl(207, 50%, 50%)" fill="none" opacity="0.87"></circle><circle r="18" cx="25" cy="435" stroke-width="2" stroke="hsl(294, 50%, 50%)" fill="none" opacity="0.26"></circle><circle r="16" cx="239" cy="777" fill="hsl(314, 50%, 50%)" opacity="0.70"></circle><circle r="14.5" cx="483" cy="249" fill="hsl(186, 50%, 50%)" opacity="0.38"></circle><circle r="13" cx="713" cy="399" stroke-width="2" stroke="hsl(149, 50%, 50%)" fill="none" opacity="0.15"></circle><circle r="17.5" cx="316" cy="243" fill="hsl(272, 50%, 50%)" opacity="0.80"></circle><circle r="19" cx="241" cy="489" stroke-width="2" stroke="hsl(314, 50%, 50%)" fill="none" opacity="0.75"></circle><circle r="17" cx="1396" cy="189" fill="hsl(284, 50%, 50%)" opacity="0.23"></circle><circle r="13.5" cx="1048" cy="406" fill="hsl(205, 50%, 50%)" opacity="0.80"></circle><circle r="13" cx="542" cy="723" stroke-width="2" stroke="hsl(165, 50%, 50%)" fill="none" opacity="0.46"></circle><circle r="16" cx="1164" cy="176" fill="hsl(250, 50%, 50%)" opacity="0.40"></circle><circle r="16" cx="1187" cy="669" fill="hsl(257, 50%, 50%)" opacity="0.20"></circle><circle r="15.5" cx="1149" cy="80" stroke-width="2" stroke="hsl(224, 50%, 50%)" fill="none" opacity="0.46"></circle><circle r="13" cx="796" cy="677" fill="hsl(148, 50%, 50%)" opacity="0.31"></circle><circle r="18" cx="1393" cy="368" fill="hsl(284, 50%, 50%)" opacity="0.93"></circle><circle r="13" cx="703" cy="338" stroke-width="2" stroke="hsl(150, 50%, 50%)" fill="none" opacity="0.98"></circle><circle r="14" cx="239" cy="21" stroke-width="2" stroke="hsl(288, 50%, 50%)" fill="none" opacity="0.53"></circle><circle r="20.5" cx="84" cy="218" fill="hsl(312, 50%, 50%)" opacity="0.80"></circle><circle r="13" cx="827" cy="451" fill="hsl(149, 50%, 50%)" opacity="0.37"></circle><circle r="16.5" cx="24" cy="772" fill="hsl(294, 50%, 50%)" opacity="0.48"></circle><circle r="12" cx="521" cy="28" fill="hsl(158, 50%, 50%)" opacity="0.77"></circle><circle r="10" cx="916" cy="27" fill="hsl(111, 50%, 50%)" opacity="0.79"></circle><circle r="17" cx="1342" cy="680" stroke-width="2" stroke="hsl(284, 50%, 50%)" fill="none" opacity="0.13"></circle><circle r="13.5" cx="939" cy="573" fill="hsl(166, 50%, 50%)" opacity="0.67"></circle><circle r="17" cx="297" cy="296" stroke-width="2" stroke="hsl(284, 50%, 50%)" fill="none" opacity="0.56"></circle><circle r="13.5" cx="482" cy="723" fill="hsl(186, 50%, 50%)" opacity="0.36"></circle><circle r="15" cx="73" cy="28" fill="hsl(249, 50%, 50%)" opacity="0.43"></circle><circle r="17" cx="277" cy="635" fill="hsl(295, 50%, 50%)" opacity="0.93"></circle><circle r="17.5" cx="298" cy="488" stroke-width="2" stroke="hsl(284, 50%, 50%)" fill="none" opacity="0.24"></circle><circle r="16.5" cx="1209" cy="76" stroke-width="2" stroke="hsl(254, 50%, 50%)" fill="none" opacity="0.22"></circle><circle r="17.5" cx="1250" cy="668" fill="hsl(275, 50%, 50%)" opacity="0.63"></circle><circle r="17.5" cx="1296" cy="331" fill="hsl(281, 50%, 50%)" opacity="0.96"></circle><circle r="14" cx="1076" cy="146" stroke-width="2" stroke="hsl(206, 50%, 50%)" fill="none" opacity="0.59"></circle><circle r="11.5" cx="558" cy="80" stroke-width="2" stroke="hsl(140, 50%, 50%)" fill="none" opacity="0.39"></circle><circle r="17.5" cx="1245" cy="132" fill="hsl(276, 50%, 50%)" opacity="0.57"></circle><circle r="17" cx="339" cy="190" stroke-width="2" stroke="hsl(259, 50%, 50%)" fill="none" opacity="0.34"></circle><circle r="18.5" cx="93" cy="726" fill="hsl(319, 50%, 50%)" opacity="0.51"></circle><circle r="12.5" cx="770" cy="421" fill="hsl(148, 50%, 50%)" opacity="0.86"></circle><circle r="12.5" cx="898" cy="248" fill="hsl(157, 50%, 50%)" opacity="0.21"></circle><circle r="18.5" cx="247" cy="586" stroke-width="2" stroke="hsl(305, 50%, 50%)" fill="none" opacity="0.38"></circle><circle r="10" cx="626" cy="77" stroke-width="2" stroke="hsl(119, 50%, 50%)" fill="none" opacity="0.77"></circle><circle r="17" cx="1392" cy="532" fill="hsl(284, 50%, 50%)" opacity="0.96"></circle><circle r="15" cx="1051" cy="198" fill="hsl(205, 50%, 50%)" opacity="0.93"></circle><circle r="17.5" cx="116" cy="424" fill="hsl(324, 50%, 50%)" opacity="0.86"></circle><circle r="13" cx="869" cy="353" stroke-width="2" stroke="hsl(153, 50%, 50%)" fill="none" opacity="0.53"></circle><circle r="16" cx="365" cy="599" fill="hsl(246, 50%, 50%)" opacity="0.91"></circle><circle r="11" cx="937" cy="81" fill="hsl(125, 50%, 50%)" opacity="0.30"></circle><circle r="12.5" cx="542" cy="245" stroke-width="2" stroke="hsl(165, 50%, 50%)" fill="none" opacity="0.48"></circle><circle r="12.5" cx="684" cy="553" fill="hsl(151, 50%, 50%)" opacity="0.71"></circle><circle r="14.5" cx="382" cy="450" stroke-width="2" stroke="hsl(232, 50%, 50%)" fill="none" opacity="0.60"></circle><circle r="14.5" cx="1087" cy="772" fill="hsl(214, 50%, 50%)" opacity="0.24"></circle><circle r="13" cx="885" cy="477" fill="hsl(153, 50%, 50%)" opacity="0.92"></circle><circle r="11" cx="993" cy="83" stroke-width="2" stroke="hsl(144, 50%, 50%)" fill="none" opacity="0.86"></circle><circle r="18" cx="239" cy="293" stroke-width="2" stroke="hsl(314, 50%, 50%)" fill="none" opacity="0.14"></circle><circle r="17.5" cx="275" cy="344" stroke-width="2" stroke="hsl(295, 50%, 50%)" fill="none" opacity="0.66"></circle><circle r="12" cx="542" cy="460" fill="hsl(165, 50%, 50%)" opacity="0.33"></circle><circle r="16" cx="295" cy="774" fill="hsl(284, 50%, 50%)" opacity="0.65"></circle><circle r="18" cx="72" cy="773" fill="hsl(312, 50%, 50%)" opacity="0.20"></circle><circle r="11.5" cx="853" cy="691" stroke-width="2" stroke="hsl(151, 50%, 50%)" fill="none" opacity="0.71"></circle><circle r="11.5" cx="803" cy="281" fill="hsl(148, 50%, 50%)" opacity="0.25"></circle><circle r="14" cx="1133" cy="329" fill="hsl(233, 50%, 50%)" opacity="0.98"></circle><circle r="15.5" cx="1352" cy="428" fill="hsl(284, 50%, 50%)" opacity="0.28"></circle><circle r="14.5" cx="454" cy="307" stroke-width="2" stroke="hsl(196, 50%, 50%)" fill="none" opacity="0.36"></circle><circle r="16" cx="395" cy="188" stroke-width="2" stroke="hsl(232, 50%, 50%)" fill="none" opacity="0.62"></circle><circle r="18.5" cx="163" cy="336" stroke-width="2" stroke="hsl(326, 50%, 50%)" fill="none" opacity="0.20"></circle><circle r="12" cx="897" cy="725" fill="hsl(157, 50%, 50%)" opacity="0.37"></circle><circle r="17.5" cx="1393" cy="478" stroke-width="2" stroke="hsl(284, 50%, 50%)" fill="none" opacity="0.22"></circle><circle r="17" cx="1300" cy="648" fill="hsl(281, 50%, 50%)" opacity="0.23"></circle><circle r="16.5" cx="371" cy="240" stroke-width="2" stroke="hsl(246, 50%, 50%)" fill="none" opacity="0.31"></circle><circle r="11.5" cx="650" cy="774" fill="hsl(152, 50%, 50%)" opacity="0.50"></circle><circle r="15" cx="1199" cy="485" fill="hsl(257, 50%, 50%)" opacity="0.66"></circle><circle r="18.5" cx="76" cy="675" stroke-width="2" stroke="hsl(312, 50%, 50%)" fill="none" opacity="0.25"></circle><circle r="12" cx="608" cy="470" stroke-width="2" stroke="hsl(155, 50%, 50%)" fill="none" opacity="0.68"></circle><circle r="12" cx="639" cy="649" stroke-width="2" stroke="hsl(153, 50%, 50%)" fill="none" opacity="0.65"></circle><circle r="17" cx="1238" cy="234" stroke-width="2" stroke="hsl(270, 50%, 50%)" fill="none" opacity="0.90"></circle><circle r="17.5" cx="164" cy="134" stroke-width="2" stroke="hsl(326, 50%, 50%)" fill="none" opacity="0.73"></circle><circle r="13.5" cx="509" cy="192" fill="hsl(178, 50%, 50%)" opacity="0.52"></circle><circle r="16.5" cx="1396" cy="26" fill="hsl(283, 50%, 50%)" opacity="0.33"></circle><circle r="16" cx="1146" cy="387" fill="hsl(242, 50%, 50%)" opacity="0.19"></circle><circle r="17" cx="1270" cy="604" stroke-width="2" stroke="hsl(278, 50%, 50%)" fill="none" opacity="0.33"></circle><circle r="17.5" cx="123" cy="29" fill="hsl(272, 50%, 50%)" opacity="0.65"></circle><circle r="12.5" cx="626" cy="531" fill="hsl(153, 50%, 50%)" opacity="0.49"></circle><circle r="11" cx="859" cy="774" fill="hsl(151, 50%, 50%)" opacity="0.54"></circle><circle r="12" cx="594" cy="686" stroke-width="2" stroke="hsl(157, 50%, 50%)" fill="none" opacity="0.30"></circle><circle r="11" cx="760" cy="733" stroke-width="2" stroke="hsl(148, 50%, 50%)" fill="none" opacity="0.40"></circle><circle r="12" cx="904" cy="666" stroke-width="2" stroke="hsl(157, 50%, 50%)" fill="none" opacity="0.73"></circle><circle r="12" cx="558" cy="409" stroke-width="2" stroke="hsl(160, 50%, 50%)" fill="none" opacity="1.00"></circle><circle r="12.5" cx="688" cy="178" fill="hsl(151, 50%, 50%)" opacity="0.82"></circle><circle r="16.5" cx="1113" cy="554" fill="hsl(233, 50%, 50%)" opacity="0.40"></circle></svg>